<?xml version="1.0" encoding="UTF-8"?>
<svg baseProfile="tiny" version="1.1" viewBox="880 1582 128 128" xml:space="preserve" xmlns="http://www.w3.org/2000/svg">
		<g transform="translate(-301 -372)">
			<path d="m1226 2033.4c6.2 12.5 12.2 24.6 18.3 37.1 3.2-9.4 6.3-18.5 9.4-27.8-9.2-3-18.2-6-27.7-9.3zm-33.5-16.1c9.4 3.2 18.5 6.3 27.7 9.4 3.1-9.2 6.2-18.3 9.4-27.8-12.5 6.3-24.6 12.3-37.1 18.4zm35.1 11.8c0.4 0.2 0.6 0.4 0.8 0.5 8.9 3 17.9 6.1 26.8 9 0.7 0.2 1.8 0 2.5-0.3 10.2-5 20.5-10.1 30.7-15.1 2.9-1.4 5.8-2.9 9-4.5-0.7-0.3-1.1-0.4-1.4-0.5-8.7-2.9-17.3-5.9-26-8.8-0.8-0.3-2-0.2-2.8 0.2-10.9 5.3-21.7 10.7-32.6 16-2.3 1.1-4.5 2.3-7 3.5zm37.8-23.7c-6.6-13.3-13.1-26.5-19.7-40-6.8 20.1-13.4 39.7-20.2 59.7 13.5-6.6 26.6-13.1 39.9-19.7zm-84.4 12.6c6.4-3.2 12.4-6.1 18.4-9.1 10.2-5 20.5-10.1 30.7-15.1 1.1-0.5 1.7-1.2 2.1-2.4 4-11.9 8.1-23.9 12.1-35.8 0.2-0.4 0.3-0.9 0.6-1.6 0.4 0.8 0.7 1.4 1 1.9 7.8 15.9 15.6 31.8 23.5 47.6 0.4 0.8 1.4 1.4 2.3 1.7 11.8 4.1 23.7 8.1 35.6 12.1 0.5 0.2 0.9 0.3 1.7 0.6-1.1 0.5-1.9 1-2.7 1.4-15.3 7.5-30.6 15.1-45.9 22.6-1.5 0.7-2.3 1.7-2.9 3.3-3.9 11.8-8 23.6-12 35.4-0.1 0.3-0.3 0.6-0.5 1.3-1-2.1-1.9-3.8-2.8-5.6-7.1-14.4-14.3-28.9-21.3-43.3-0.6-1.2-1.3-1.9-2.6-2.4-11.9-4-23.7-8-35.6-12.1-0.5 0-0.9-0.2-1.7-0.5z" fill="#eee"/>
		</g>
		<g transform="translate(-301 -372)" fill="#eee">
			<polygon points="1261.7 2061.6 1262.9 2058.2 1300.5 2058.2 1300.5 2029.7 1304 2028 1304 2061.6"/>
			<polygon points="1300.5 2007.4 1300.5 1977.9 1265.8 1977.9 1264.1 1974.4 1304 1974.4 1304 2008.6"/>
			<polygon points="1186 2061.6 1186 2027.5 1189.6 2028.7 1189.6 2058.2 1224.2 2058.2 1225.9 2061.6"/>
			<polygon points="1186 1974.4 1228.2 1974.4 1227 1977.9 1189.6 1977.9 1189.6 2006.2 1186 2008"/>
		</g>
</svg>
